<?xml version="1.0" encoding="UTF-8"?>
<!DOCTYPE svg PUBLIC "-//W3C//DTD SVG 1.1//EN" "http://www.w3.org/Graphics/SVG/1.1/DTD/svg11.dtd">
<svg xmlns="http://www.w3.org/2000/svg" version="1.1" width="1000px" height="1000px" style="shape-rendering:geometricPrecision; text-rendering:geometricPrecision; image-rendering:optimizeQuality; fill-rule:evenodd; clip-rule:evenodd" xmlns:xlink="http://www.w3.org/1999/xlink">
<g><path style="opacity:1" fill="#fefefe" d="M -0.5,-0.5 C 332.833,-0.5 666.167,-0.5 999.5,-0.5C 999.5,332.833 999.5,666.167 999.5,999.5C 666.167,999.5 332.833,999.5 -0.5,999.5C -0.5,666.167 -0.5,332.833 -0.5,-0.5 Z"/></g>
<g><path style="opacity:1" fill="#8177fc" d="M 725.5,392.5 C 725.667,381.495 725.5,370.495 725,359.5C 724.95,357.256 724.117,355.589 722.5,354.5C 721.766,353.292 721.433,351.959 721.5,350.5C 720.178,350.67 719.011,350.337 718,349.5C 702.866,359.106 686.699,366.606 669.5,372C 666.338,376.445 664.671,381.445 664.5,387C 666.318,406.76 669.485,426.26 674,445.5C 677.158,470.166 675.658,494.5 669.5,518.5C 663.135,534.229 655.968,549.562 648,564.5C 628.297,598.036 601.464,624.369 567.5,643.5C 524.778,663.863 480.278,668.196 434,656.5C 397.507,645.028 367.173,624.362 343,594.5C 334.653,580.491 326.32,566.491 318,552.5C 313.241,539.96 308.408,527.46 303.5,515C 300.016,489.298 298.683,463.465 299.5,437.5C 290.498,435.592 281.498,433.425 272.5,431C 267.019,427.758 261.353,424.758 255.5,422C 253.772,419.418 251.439,417.918 248.5,417.5C 248.649,416.448 248.483,415.448 248,414.5C 239.908,406.414 232.575,397.747 226,388.5C 216.461,370.686 213.961,351.853 218.5,332C 213.008,313.924 211.174,295.424 213,276.5C 215.092,274.229 216.426,271.563 217,268.5C 230.099,253.066 244.266,238.566 259.5,225C 270.5,218 281.5,211 292.5,204C 297.016,202.789 301.349,201.122 305.5,199C 314.805,200.015 320.471,196.015 322.5,187C 323.793,170.55 331.46,158.05 345.5,149.5C 347.351,147.816 349.018,145.983 350.5,144C 355.469,143.348 359.802,141.348 363.5,138C 372.943,128.22 382.609,118.887 392.5,110C 395.952,109.108 398.952,107.442 401.5,105C 435.881,92.9777 465.714,99.8111 491,125.5C 492.94,128.255 494.607,131.255 496,134.5C 497.389,136.227 499.056,137.561 501,138.5C 507.985,131.013 514.818,123.346 521.5,115.5C 539.032,103.683 558.365,99.8499 579.5,104C 588.757,106.736 597.757,110.236 606.5,114.5C 609.634,116.465 612.634,118.631 615.5,121C 622.135,128.636 629.135,135.97 636.5,143C 642.718,146.52 649.052,149.853 655.5,153C 658,156.833 661.167,160 665,162.5C 668.589,167.913 671.422,173.746 673.5,180C 674.97,188.808 677.303,197.308 680.5,205.5C 692.797,213.863 705.464,221.697 718.5,229C 723.511,232.684 728.178,236.684 732.5,241C 737.548,243.468 742.215,246.468 746.5,250C 747.743,251.154 748.743,252.488 749.5,254C 760.395,261.763 771.229,269.597 782,277.5C 785.643,281.38 787.143,286.046 786.5,291.5C 786.333,293.833 786.167,296.167 786,298.5C 783.302,301.775 781.469,305.442 780.5,309.5C 774.433,313.709 768.433,318.209 762.5,323C 759.333,326.167 756.167,329.333 753,332.5C 752.369,335.393 751.536,338.226 750.5,341C 750.608,387.769 750.774,434.602 751,481.5C 751.994,485.633 752.828,489.8 753.5,494C 756.62,500.806 759.953,507.473 763.5,514C 765.428,522.304 767.094,530.638 768.5,539C 768.454,546.307 765.787,552.474 760.5,557.5C 756.994,559.054 753.661,560.888 750.5,563C 745.878,563.708 741.378,564.874 737,566.5C 719.482,561.647 707.815,550.647 702,533.5C 698.879,519.597 702.712,508.097 713.5,499C 717.387,495.605 721.387,492.438 725.5,489.5C 727.109,484.472 728.109,479.306 728.5,474C 726.981,446.641 725.981,419.474 725.5,392.5 Z"/></g>
<g><path style="opacity:1" fill="#fefdfe" d="M 479.5,160.5 C 480.312,171.146 480.646,181.813 480.5,192.5C 479.6,204.84 478.6,217.173 477.5,229.5C 476.091,238.631 475.424,247.965 475.5,257.5C 474.089,276.316 473.255,295.316 473,314.5C 470.961,327.264 469.461,340.098 468.5,353C 465.828,367.171 457.828,377.005 444.5,382.5C 424.614,384.056 405.448,381.056 387,373.5C 378.012,367.548 368.179,363.215 357.5,360.5C 354.19,358.75 351.524,356.416 349.5,353.5C 347.266,342.91 346.932,332.243 348.5,321.5C 353.061,313.77 359.228,307.437 367,302.5C 367.851,296.747 367.517,291.08 366,285.5C 363.872,282.697 361.706,279.864 359.5,277C 346.82,271.389 336.653,274.222 329,285.5C 324.622,295.839 319.622,305.839 314,315.5C 309.01,319.31 303.343,321.643 297,322.5C 292.812,320.908 288.478,319.908 284,319.5C 277.843,320.949 271.676,322.449 265.5,324C 261.004,324.852 256.67,324.352 252.5,322.5C 252.005,319.53 250.505,317.196 248,315.5C 247.338,313.187 246.838,310.854 246.5,308.5C 245.527,298.916 245.194,289.25 245.5,279.5C 246.291,276.668 247.624,274.001 249.5,271.5C 256.683,264.483 264.016,257.65 271.5,251C 283.711,242.508 295.711,233.842 307.5,225C 311.355,223.716 315.021,222.05 318.5,220C 326.692,218.748 334.025,220.581 340.5,225.5C 344.703,230.279 349.37,234.613 354.5,238.5C 357.778,240.427 361.111,242.26 364.5,244C 378.459,245.554 392.459,245.888 406.5,245C 413.6,243.685 420.6,242.018 427.5,240C 430.28,238.188 432.78,236.021 435,233.5C 437.483,217.106 430.65,207.439 414.5,204.5C 410.304,206.133 405.971,207.299 401.5,208C 395.116,216.131 386.782,218.797 376.5,216C 369.679,211.701 365.012,205.868 362.5,198.5C 361.448,198.649 360.448,198.483 359.5,198C 356.447,194.736 353.281,191.57 350,188.5C 349.362,185.464 349.528,182.464 350.5,179.5C 352.47,175.898 354.137,172.231 355.5,168.5C 358.516,168.159 361.182,166.993 363.5,165C 370.799,163.98 378.132,163.313 385.5,163C 389.893,156.81 393.726,150.31 397,143.5C 405.09,135.202 414.59,129.036 425.5,125C 453.377,122.453 471.377,134.286 479.5,160.5 Z"/></g>
<g><path style="opacity:1" fill="#fefdfe" d="M 512.5,187.5 C 514.446,182.604 515.113,177.271 514.5,171.5C 516.926,159.817 522.592,149.984 531.5,142C 537.99,136.843 544.99,132.509 552.5,129C 581.233,123.384 599.566,134.718 607.5,163C 615.801,164.825 624.134,166.492 632.5,168C 641.292,171.625 647.625,177.792 651.5,186.5C 652.884,196.488 654.217,206.488 655.5,216.5C 661.175,224.675 668.175,231.508 676.5,237C 691.047,244.39 704.714,253.056 717.5,263C 718.448,263.483 719.448,263.649 720.5,263.5C 727.114,271.531 733.281,279.864 739,288.5C 743.654,300.746 739.821,308.746 727.5,312.5C 723.42,315.264 719.754,318.597 716.5,322.5C 709.764,326.027 703.431,330.194 697.5,335C 691.761,338.576 685.761,341.576 679.5,344C 669.161,344.185 658.827,344.185 648.5,344C 647.584,344.374 646.75,344.874 646,345.5C 644.243,353.124 641.076,359.957 636.5,366C 619.729,372.653 602.562,378.153 585,382.5C 566.122,385.162 547.289,384.995 528.5,382C 521.829,379.658 516.662,375.492 513,369.5C 506.772,355.739 503.939,341.239 504.5,326C 505.877,300.518 506.71,275.018 507,249.5C 508.867,228.822 510.7,208.156 512.5,187.5 Z"/></g>
<g><path style="opacity:1" fill="#d3a0cd" d="M 479.5,160.5 C 481.014,166.595 481.68,172.928 481.5,179.5C 481.499,184.013 481.166,188.347 480.5,192.5C 480.646,181.813 480.312,171.146 479.5,160.5 Z"/></g>
<g><path style="opacity:1" fill="#d9a9d0" d="M 514.5,171.5 C 515.113,177.271 514.446,182.604 512.5,187.5C 513.123,182.065 513.79,176.732 514.5,171.5 Z"/></g>
<g><path style="opacity:1" fill="#8177fb" d="M 537.5,228.5 C 537.167,223.833 536.833,219.167 536.5,214.5C 537.058,213.21 538.058,212.377 539.5,212C 544.5,211.333 549.5,211.333 554.5,212C 562.549,215.632 571.049,217.132 580,216.5C 588.359,217.363 596.192,215.863 603.5,212C 616.617,210.763 624.284,216.763 626.5,230C 625.864,236.452 622.864,241.452 617.5,245C 599.726,249.127 581.726,250.46 563.5,249C 560.655,248.462 557.988,247.462 555.5,246C 550.044,242.213 544.877,238.046 540,233.5C 539.243,231.685 538.41,230.019 537.5,228.5 Z"/></g>
<g><path style="opacity:1" fill="#cc91c6" d="M 536.5,214.5 C 536.833,219.167 537.167,223.833 537.5,228.5C 535.672,223.897 535.339,219.231 536.5,214.5 Z"/></g>
<g><path style="opacity:1" fill="#ce9acc" d="M 477.5,229.5 C 477.486,239.029 476.819,248.363 475.5,257.5C 475.424,247.965 476.091,238.631 477.5,229.5 Z"/></g>
<g><path style="opacity:1" fill="#8178fc" d="M 399.5,327.5 C 398.357,311.172 398.357,294.838 399.5,278.5C 399.63,272.84 402.63,270.173 408.5,270.5C 415.04,271.523 420.54,274.523 425,279.5C 426.975,285.446 429.475,291.113 432.5,296.5C 433.833,302.5 433.833,308.5 432.5,314.5C 428.606,323.624 425.273,332.957 422.5,342.5C 418.116,342.826 413.783,342.492 409.5,341.5C 407.344,339.991 405.01,338.991 402.5,338.5C 402.074,334.573 401.074,330.907 399.5,327.5 Z"/></g>
<g><path style="opacity:1" fill="#b377c5" d="M 245.5,279.5 C 245.194,289.25 245.527,298.916 246.5,308.5C 245.173,304.049 244.506,299.216 244.5,294C 244.501,288.988 244.834,284.155 245.5,279.5 Z"/></g>
<g><path style="opacity:1" fill="#8177fb" d="M 613.5,284.5 C 626.989,283.593 638.989,287.26 649.5,295.5C 654.132,302.132 659.799,307.799 666.5,312.5C 673.844,321.886 672.844,330.386 663.5,338C 658.178,339.908 652.845,339.908 647.5,338C 633.482,325.754 617.149,318.087 598.5,315C 596.056,314.196 594.222,312.696 593,310.5C 588.687,317.754 584.187,324.921 579.5,332C 574.743,332.81 570.076,332.476 565.5,331C 565.207,327.906 563.541,326.406 560.5,326.5C 558.786,319.931 558.286,313.264 559,306.5C 561.718,300.768 564.885,295.435 568.5,290.5C 577.389,287.378 585.555,288.711 593,294.5C 593.333,295.833 593.667,297.167 594,298.5C 598.512,290.788 605.012,286.121 613.5,284.5 Z"/></g>
<g><path style="opacity:1" fill="#b478c6" d="M 399.5,278.5 C 398.357,294.838 398.357,311.172 399.5,327.5C 397.007,311.175 397.007,294.841 399.5,278.5 Z"/></g>
<g><path style="opacity:1" fill="#fefdfd" d="M 286.5,332.5 C 291.747,332.562 296.747,333.728 301.5,336C 306.805,338.09 311.471,341.09 315.5,345C 317.278,350.857 319.278,356.69 321.5,362.5C 322.932,374.981 322.099,387.315 319,399.5C 314.459,405.417 310.292,411.584 306.5,418C 298.112,418.831 289.779,418.497 281.5,417C 277.238,414.678 272.904,412.345 268.5,410C 264.487,405.812 260.154,401.979 255.5,398.5C 253.351,394.011 250.518,390.011 247,386.5C 246.222,383.498 245.055,380.664 243.5,378C 242.191,368.322 240.191,358.822 237.5,349.5C 237.516,343.284 240.182,338.784 245.5,336C 251.01,335.5 256.51,335.667 262,336.5C 268.673,335.899 275.34,335.233 282,334.5C 283.986,334.431 285.486,333.765 286.5,332.5 Z"/></g>
<g><path style="opacity:1" fill="#ca95cc" d="M 348.5,321.5 C 346.932,332.243 347.266,342.91 349.5,353.5C 348.073,351.852 347.24,349.852 347,347.5C 346.333,339.833 346.333,332.167 347,324.5C 347.232,323.263 347.732,322.263 348.5,321.5 Z"/></g>
<g><path style="opacity:1" fill="#d4a2cd" d="M 722.5,354.5 C 724.117,355.589 724.95,357.256 725,359.5C 725.5,370.495 725.667,381.495 725.5,392.5C 724.67,382.008 724.17,371.341 724,360.5C 723.685,358.414 723.185,356.414 722.5,354.5 Z"/></g>
<g><path style="opacity:1" fill="#fefefe" d="M 487.5,382.5 C 489.937,383.217 492.27,384.217 494.5,385.5C 499.281,391.942 504.614,397.775 510.5,403C 518.029,406.812 526.029,409.312 534.5,410.5C 566.177,412.361 597.01,408.028 627,397.5C 630.687,398.013 634.021,399.346 637,401.5C 650.485,437.255 653.152,473.922 645,511.5C 641.269,519.009 638.102,526.842 635.5,535C 623.496,557.031 608.83,577.031 591.5,595C 583.49,601.678 575.49,608.345 567.5,615C 564.259,616.242 561.259,617.909 558.5,620C 545.325,625.948 531.825,631.115 518,635.5C 500.395,639.684 482.562,641.184 464.5,640C 457.285,637.964 449.951,636.464 442.5,635.5C 436.231,632.849 429.897,630.349 423.5,628C 415.613,623.14 407.446,618.64 399,614.5C 392.131,609.128 385.464,603.461 379,597.5C 378.517,596.552 378.351,595.552 378.5,594.5C 377.325,594.719 376.325,594.386 375.5,593.5C 372.794,590.296 369.961,587.296 367,584.5C 360.709,573.937 353.875,563.77 346.5,554C 342.461,544.728 338.128,535.561 333.5,526.5C 327.189,501.535 325.356,476.202 328,450.5C 330.441,444.403 332.108,438.07 333,431.5C 337.037,422.434 340.204,413.101 342.5,403.5C 344.66,400.707 345.994,397.54 346.5,394C 347.819,392.012 349.653,390.845 352,390.5C 369.059,395.444 385.892,401.11 402.5,407.5C 416.1,409.606 429.766,410.439 443.5,410C 456.274,407.197 467.44,401.364 477,392.5C 477.707,390.919 478.54,389.419 479.5,388C 481.895,385.619 484.561,383.785 487.5,382.5 Z"/></g>
<g><path style="opacity:1" fill="#8177fb" d="M 404.5,452.5 C 428.157,449.848 441.49,460.181 444.5,483.5C 440.282,506.943 426.616,515.776 403.5,510C 400.587,507.413 397.42,505.246 394,503.5C 390.597,499.096 387.597,494.429 385,489.5C 382.193,471.989 388.693,459.655 404.5,452.5 Z"/></g>
<g><path style="opacity:1" fill="#8177fb" d="M 557.5,457.5 C 572.588,454.377 584.754,458.71 594,470.5C 597.077,477.527 597.077,484.527 594,491.5C 591.153,500.391 585.32,506.225 576.5,509C 569.039,509.963 561.706,509.463 554.5,507.5C 550.078,504.871 545.912,501.871 542,498.5C 534.575,484.03 537.075,471.53 549.5,461C 552.675,460.507 555.341,459.34 557.5,457.5 Z"/></g>
<g><path style="opacity:1" fill="#fcf8fb" d="M 738.5,521.5 C 744.523,521.943 746.023,524.943 743,530.5C 741.5,532 740,533.5 738.5,535C 736.633,535.711 735.133,535.211 734,533.5C 733.828,530.174 733.995,526.841 734.5,523.5C 736.483,523.843 737.817,523.176 738.5,521.5 Z"/></g>
<g><path style="opacity:1" fill="#8377f9" d="M 486.5,568.5 C 493.543,568.28 500.543,568.614 507.5,569.5C 508.463,573.796 508.629,578.129 508,582.5C 506.543,584.658 504.71,586.491 502.5,588C 486.157,589.942 469.824,589.942 453.5,588C 452.019,587.02 450.685,585.853 449.5,584.5C 448.194,580.635 448.194,576.802 449.5,573C 451.002,572.417 452.335,571.584 453.5,570.5C 464.659,569.833 475.659,569.167 486.5,568.5 Z"/></g>
<g><path style="opacity:1" fill="#7e78ff" d="M 517.5,682.5 C 523.833,682.5 530.167,682.5 536.5,682.5C 536.5,718.167 536.5,753.833 536.5,789.5C 530.5,789.5 524.5,789.5 518.5,789.5C 518.823,785.774 518.489,782.107 517.5,778.5C 514.349,782.151 511.016,785.651 507.5,789C 497.5,789.667 487.5,789.667 477.5,789C 473.367,783.866 468.867,779.032 464,774.5C 463.333,759.5 463.333,744.5 464,729.5C 468.833,724.667 473.667,719.833 478.5,715C 488.5,714.333 498.5,714.333 508.5,715C 511.052,717.853 513.885,720.353 517,722.5C 517.5,709.171 517.667,695.837 517.5,682.5 Z"/></g>
<g><path style="opacity:1" fill="#1406ff" d="M 186.5,684.5 C 192.868,684.17 199.202,684.504 205.5,685.5C 218.167,719.833 230.833,754.167 243.5,788.5C 236.532,789.497 229.532,789.83 222.5,789.5C 220.332,781.829 217.665,774.329 214.5,767C 202.167,766.333 189.833,766.333 177.5,767C 174.335,774.329 171.668,781.829 169.5,789.5C 162.468,789.83 155.468,789.497 148.5,788.5C 161.371,753.886 174.037,719.22 186.5,684.5 Z"/></g>
<g><path style="opacity:1" fill="#0e02ff" d="M 255.5,684.5 C 262.167,684.5 268.833,684.5 275.5,684.5C 275.5,719.5 275.5,754.5 275.5,789.5C 268.833,789.5 262.167,789.5 255.5,789.5C 255.5,754.5 255.5,719.5 255.5,684.5 Z"/></g>
<g><path style="opacity:1" fill="#f9f8ff" d="M 195.5,709.5 C 200.738,722.545 205.405,735.878 209.5,749.5C 200.5,749.5 191.5,749.5 182.5,749.5C 186.435,736.027 190.769,722.694 195.5,709.5 Z"/></g>
<g><path style="opacity:1" fill="#7f79ff" d="M 307.5,714.5 C 321.504,714.333 335.504,714.5 349.5,715C 354.333,719.833 359.167,724.667 364,729.5C 364.499,734.489 364.666,739.489 364.5,744.5C 357.833,744.5 351.167,744.5 344.5,744.5C 345.498,739.465 344.165,735.298 340.5,732C 332.833,731.333 325.167,731.333 317.5,732C 316,733.5 314.5,735 313,736.5C 312.333,746.833 312.333,757.167 313,767.5C 314.5,769 316,770.5 317.5,772C 325.167,772.667 332.833,772.667 340.5,772C 344.903,769.377 346.569,765.543 345.5,760.5C 351.833,760.5 358.167,760.5 364.5,760.5C 364.666,765.179 364.499,769.845 364,774.5C 359.167,779.333 354.333,784.167 349.5,789C 335.5,789.667 321.5,789.667 307.5,789C 303,784.5 298.5,780 294,775.5C 293.333,760.167 293.333,744.833 294,729.5C 299.078,724.928 303.578,719.928 307.5,714.5 Z"/></g>
<g><path style="opacity:1" fill="#7f79ff" d="M 392.5,714.5 C 405.504,714.333 418.504,714.5 431.5,715C 436.667,720.167 441.833,725.333 447,730.5C 447.5,750.164 447.667,769.831 447.5,789.5C 441.5,789.5 435.5,789.5 429.5,789.5C 429.665,786.15 429.498,782.817 429,779.5C 425.833,782.667 422.667,785.833 419.5,789C 409.5,789.667 399.5,789.667 389.5,789C 385.333,784.833 381.167,780.667 377,776.5C 376.333,770.167 376.333,763.833 377,757.5C 381.167,753.333 385.333,749.167 389.5,745C 402.496,744.5 415.496,744.333 428.5,744.5C 429.722,738.834 428.055,734.334 423.5,731C 415.833,730.333 408.167,730.333 400.5,731C 397.156,732.894 395.822,735.727 396.5,739.5C 389.833,739.5 383.167,739.5 376.5,739.5C 376.335,736.482 376.502,733.482 377,730.5C 382.37,725.298 387.536,719.965 392.5,714.5 Z"/></g>
<g><path style="opacity:1" fill="#7f79ff" d="M 626.5,758.5 C 608.5,758.5 590.5,758.5 572.5,758.5C 572.187,762.042 572.521,765.375 573.5,768.5C 574.625,770.129 575.959,771.629 577.5,773C 585.833,773.667 594.167,773.667 602.5,773C 605.844,771.106 607.178,768.273 606.5,764.5C 613.167,764.5 619.833,764.5 626.5,764.5C 626.665,767.85 626.498,771.183 626,774.5C 621.167,779.333 616.333,784.167 611.5,789C 596.833,789.667 582.167,789.667 567.5,789C 563,784.5 558.5,780 554,775.5C 553.333,760.167 553.333,744.833 554,729.5C 558.833,724.667 563.667,719.833 568.5,715C 582.5,714.333 596.5,714.333 610.5,715C 615.667,720.167 620.833,725.333 626,730.5C 626.5,739.827 626.666,749.161 626.5,758.5 Z"/></g>
<g><path style="opacity:1" fill="#7f79ff" d="M 642.5,714.5 C 648.5,714.5 654.5,714.5 660.5,714.5C 660.176,718.555 660.509,722.555 661.5,726.5C 664.984,722.515 668.651,718.682 672.5,715C 679.167,714.333 685.833,714.333 692.5,715C 695.012,718.846 698.179,722.012 702,724.5C 705.634,722.033 708.801,719.033 711.5,715.5C 720.482,714.335 729.482,714.168 738.5,715C 743.667,720.167 748.833,725.333 754,730.5C 754.5,750.164 754.667,769.831 754.5,789.5C 747.833,789.5 741.167,789.5 734.5,789.5C 734.667,771.83 734.5,754.164 734,736.5C 732.5,735 731,733.5 729.5,732C 725.167,731.333 720.833,731.333 716.5,732C 714,734.5 711.5,737 709,739.5C 708.5,756.163 708.333,772.83 708.5,789.5C 702.167,789.5 695.833,789.5 689.5,789.5C 689.667,771.497 689.5,753.497 689,735.5C 685.34,731.633 680.84,730.466 675.5,732C 671.333,736.167 667.167,740.333 663,744.5C 662.5,759.496 662.333,774.496 662.5,789.5C 655.833,789.5 649.167,789.5 642.5,789.5C 642.5,764.5 642.5,739.5 642.5,714.5 Z"/></g>
<g><path style="opacity:1" fill="#a3a0ff" d="M 790.5,715.5 C 784.167,715.5 777.833,715.5 771.5,715.5C 771.5,734.833 771.5,754.167 771.5,773.5C 770.503,754.007 770.17,734.34 770.5,714.5C 777.354,714.176 784.021,714.509 790.5,715.5 Z"/></g>
<g><path style="opacity:1" fill="#7f78ff" d="M 771.5,773.5 C 771.5,754.167 771.5,734.833 771.5,715.5C 777.833,715.5 784.167,715.5 790.5,715.5C 790.333,732.837 790.5,750.17 791,767.5C 792.529,768.729 793.696,770.229 794.5,772C 799.5,772.667 804.5,772.667 809.5,772C 813.55,767.405 817.717,762.905 822,758.5C 822.5,743.837 822.667,729.17 822.5,714.5C 829.167,714.5 835.833,714.5 842.5,714.5C 842.667,745.502 842.5,776.502 842,807.5C 836.532,811.967 831.365,816.8 826.5,822C 813.167,822.667 799.833,822.667 786.5,822C 782.333,817.833 778.167,813.667 774,809.5C 773.501,805.848 773.335,802.182 773.5,798.5C 779.833,798.5 786.167,798.5 792.5,798.5C 791.959,801.652 792.959,804.152 795.5,806C 802.833,806.667 810.167,806.667 817.5,806C 819,804.5 820.5,803 822,801.5C 822.667,794.167 822.667,786.833 822,779.5C 818.833,782.667 815.667,785.833 812.5,789C 803.833,789.667 795.167,789.667 786.5,789C 781.297,783.965 776.297,778.798 771.5,773.5 Z"/></g>
<g><path style="opacity:1" fill="#fafaff" d="M 606.5,744.5 C 595.5,744.5 584.5,744.5 573.5,744.5C 573.5,741.5 573.5,738.5 573.5,735.5C 574.596,733.897 575.93,732.397 577.5,731C 585.5,730.333 593.5,730.333 601.5,731C 606.055,734.334 607.722,738.834 606.5,744.5 Z"/></g>
<g><path style="opacity:1" fill="#fcfcff" d="M 488.5,731.5 C 494.842,731.334 501.175,731.5 507.5,732C 510.369,735.204 513.535,738.037 517,740.5C 517.667,747.167 517.667,753.833 517,760.5C 513.167,764.333 509.333,768.167 505.5,772C 499.5,772.667 493.5,772.667 487.5,772C 486,770.5 484.5,769 483,767.5C 482.333,757.5 482.333,747.5 483,737.5C 485.04,735.63 486.873,733.63 488.5,731.5 Z"/></g>
<g><path style="opacity:1" fill="#c1beff" d="M 573.5,735.5 C 573.5,738.5 573.5,741.5 573.5,744.5C 584.5,744.5 595.5,744.5 606.5,744.5C 595.346,745.495 584.012,745.828 572.5,745.5C 572.187,741.958 572.521,738.625 573.5,735.5 Z"/></g>
<g><path style="opacity:1" fill="#cac8ff" d="M 399.5,759.5 C 408.986,758.506 418.652,758.173 428.5,758.5C 428.795,760.735 428.461,762.735 427.5,764.5C 427.5,762.833 427.5,761.167 427.5,759.5C 418.167,759.5 408.833,759.5 399.5,759.5 Z"/></g>
<g><path style="opacity:1" fill="#dbd9ff" d="M 626.5,758.5 C 609.008,759.497 591.341,759.83 573.5,759.5C 573.5,762.5 573.5,765.5 573.5,768.5C 572.521,765.375 572.187,762.042 572.5,758.5C 590.5,758.5 608.5,758.5 626.5,758.5 Z"/></g>
<g><path style="opacity:1" fill="#fcfcff" d="M 399.5,759.5 C 408.833,759.5 418.167,759.5 427.5,759.5C 427.5,761.167 427.5,762.833 427.5,764.5C 424.036,767.462 420.703,770.629 417.5,774C 411.5,774.667 405.5,774.667 399.5,774C 394.183,769.046 394.183,764.212 399.5,759.5 Z"/></g>
<g><path style="opacity:1" fill="#767676" d="M 240.5,837.5 C 233.833,837.5 227.167,837.5 220.5,837.5C 220.5,838.5 220.5,839.5 220.5,840.5C 223.167,840.5 225.833,840.5 228.5,840.5C 228.5,847.833 228.5,855.167 228.5,862.5C 227.509,855.687 227.175,848.687 227.5,841.5C 224.833,841.5 222.167,841.5 219.5,841.5C 219.5,839.833 219.5,838.167 219.5,836.5C 226.687,836.175 233.687,836.509 240.5,837.5 Z"/></g>
<g><path style="opacity:1" fill="#181818" d="M 243.5,836.5 C 245.167,836.5 246.833,836.5 248.5,836.5C 248.335,839.85 248.502,843.183 249,846.5C 253.068,843.675 256.901,844.008 260.5,847.5C 261.494,852.456 261.827,857.456 261.5,862.5C 259.833,862.5 258.167,862.5 256.5,862.5C 256.5,857.833 256.5,853.167 256.5,848.5C 253.348,847.959 250.848,848.959 249,851.5C 248.501,855.152 248.335,858.818 248.5,862.5C 246.833,862.5 245.167,862.5 243.5,862.5C 243.5,853.833 243.5,845.167 243.5,836.5 Z"/></g>
<g><path style="opacity:1" fill="#767676" d="M 455.5,837.5 C 448.833,837.5 442.167,837.5 435.5,837.5C 435.5,838.5 435.5,839.5 435.5,840.5C 438.167,840.5 440.833,840.5 443.5,840.5C 443.5,847.833 443.5,855.167 443.5,862.5C 442.509,855.687 442.175,848.687 442.5,841.5C 439.833,841.5 437.167,841.5 434.5,841.5C 434.5,839.833 434.5,838.167 434.5,836.5C 441.687,836.175 448.687,836.509 455.5,837.5 Z"/></g>
<g><path style="opacity:1" fill="#000000" d="M 499.5,836.5 C 500.833,836.5 502.167,836.5 503.5,836.5C 503.5,845.167 503.5,853.833 503.5,862.5C 502.167,862.5 500.833,862.5 499.5,862.5C 499.5,853.833 499.5,845.167 499.5,836.5 Z"/></g>
<g><path style="opacity:1" fill="#0b0b0b" d="M 640.5,836.5 C 642.167,836.5 643.833,836.5 645.5,836.5C 645.5,845.167 645.5,853.833 645.5,862.5C 644.167,862.5 642.833,862.5 641.5,862.5C 641.557,858.867 640.557,858.7 638.5,862C 630.839,864.162 627.172,861.329 627.5,853.5C 627.549,844.767 631.716,842.1 640,845.5C 640.498,842.518 640.665,839.518 640.5,836.5 Z"/></g>
<g><path style="opacity:1" fill="#121212" d="M 728.5,836.5 C 732.138,835.737 733.638,837.07 733,840.5C 728.415,842.413 726.915,841.079 728.5,836.5 Z"/></g>
<g><path style="opacity:1" fill="#000000" d="M 240.5,837.5 C 240.5,838.5 240.5,839.5 240.5,840.5C 237.833,840.5 235.167,840.5 232.5,840.5C 232.5,847.833 232.5,855.167 232.5,862.5C 231.167,862.5 229.833,862.5 228.5,862.5C 228.5,855.167 228.5,847.833 228.5,840.5C 225.833,840.5 223.167,840.5 220.5,840.5C 220.5,839.5 220.5,838.5 220.5,837.5C 227.167,837.5 233.833,837.5 240.5,837.5 Z"/></g>
<g><path style="opacity:1" fill="#a2a2a2" d="M 301.5,837.5 C 300.167,837.5 298.833,837.5 297.5,837.5C 297.5,845.833 297.5,854.167 297.5,862.5C 296.507,854.016 296.174,845.349 296.5,836.5C 298.415,836.216 300.081,836.549 301.5,837.5 Z"/></g>
<g><path style="opacity:1" fill="#060606" d="M 317.5,862.5 C 317.666,857.156 317.499,851.823 317,846.5C 316.283,847.044 315.783,847.711 315.5,848.5C 314.057,852.407 311.89,855.741 309,858.5C 306.428,855.032 304.095,851.365 302,847.5C 301.501,852.489 301.334,857.489 301.5,862.5C 300.167,862.5 298.833,862.5 297.5,862.5C 297.5,854.167 297.5,845.833 297.5,837.5C 298.833,837.5 300.167,837.5 301.5,837.5C 304.259,842.687 306.759,848.02 309,853.5C 312.051,848.066 314.551,842.4 316.5,836.5C 318.167,836.5 319.833,836.5 321.5,836.5C 321.5,845.167 321.5,853.833 321.5,862.5C 320.167,862.5 318.833,862.5 317.5,862.5 Z"/></g>
<g><path style="opacity:1" fill="#0e0e0e" d="M 400.5,836.5 C 401.978,836.238 403.311,836.571 404.5,837.5C 407.5,845.5 410.5,853.5 413.5,861.5C 409.303,862.897 407.303,861.23 407.5,856.5C 404.102,856.18 400.768,856.513 397.5,857.5C 396.94,860.996 394.94,862.663 391.5,862.5C 394.103,853.69 397.103,845.024 400.5,836.5 Z"/></g>
<g><path style="opacity:1" fill="#a5a5a5" d="M 421.5,862.5 C 421.5,854.167 421.5,845.833 421.5,837.5C 420.167,837.5 418.833,837.5 417.5,837.5C 417.5,845.833 417.5,854.167 417.5,862.5C 416.507,854.016 416.174,845.349 416.5,836.5C 418.5,836.5 420.5,836.5 422.5,836.5C 422.826,845.349 422.493,854.016 421.5,862.5 Z"/></g>
<g><path style="opacity:1" fill="#000000" d="M 421.5,862.5 C 420.167,862.5 418.833,862.5 417.5,862.5C 417.5,854.167 417.5,845.833 417.5,837.5C 418.833,837.5 420.167,837.5 421.5,837.5C 421.5,845.833 421.5,854.167 421.5,862.5 Z"/></g>
<g><path style="opacity:1" fill="#000000" d="M 455.5,837.5 C 455.5,838.5 455.5,839.5 455.5,840.5C 452.833,840.5 450.167,840.5 447.5,840.5C 447.5,847.833 447.5,855.167 447.5,862.5C 446.167,862.5 444.833,862.5 443.5,862.5C 443.5,855.167 443.5,847.833 443.5,840.5C 440.833,840.5 438.167,840.5 435.5,840.5C 435.5,839.5 435.5,838.5 435.5,837.5C 442.167,837.5 448.833,837.5 455.5,837.5 Z"/></g>
<g><path style="opacity:1" fill="#000000" d="M 554.5,848.5 C 554.5,849.5 554.5,850.5 554.5,851.5C 550.5,851.5 546.5,851.5 542.5,851.5C 542.5,855.167 542.5,858.833 542.5,862.5C 541.167,862.5 539.833,862.5 538.5,862.5C 538.5,854.167 538.5,845.833 538.5,837.5C 544.167,837.5 549.833,837.5 555.5,837.5C 555.5,838.5 555.5,839.5 555.5,840.5C 551.167,840.5 546.833,840.5 542.5,840.5C 542.5,843.167 542.5,845.833 542.5,848.5C 546.5,848.5 550.5,848.5 554.5,848.5 Z"/></g>
<g><path style="opacity:1" fill="#979797" d="M 624.5,837.5 C 618.5,837.5 612.5,837.5 606.5,837.5C 606.5,845.833 606.5,854.167 606.5,862.5C 605.507,854.016 605.174,845.349 605.5,836.5C 612.022,836.177 618.355,836.51 624.5,837.5 Z"/></g>
<g><path style="opacity:1" fill="#000000" d="M 624.5,837.5 C 624.5,838.5 624.5,839.5 624.5,840.5C 619.833,840.5 615.167,840.5 610.5,840.5C 610.5,842.833 610.5,845.167 610.5,847.5C 614.833,847.5 619.167,847.5 623.5,847.5C 623.5,848.833 623.5,850.167 623.5,851.5C 619.167,851.5 614.833,851.5 610.5,851.5C 610.5,853.833 610.5,856.167 610.5,858.5C 615.167,858.5 619.833,858.5 624.5,858.5C 624.5,859.833 624.5,861.167 624.5,862.5C 618.5,862.5 612.5,862.5 606.5,862.5C 606.5,854.167 606.5,845.833 606.5,837.5C 612.5,837.5 618.5,837.5 624.5,837.5 Z"/></g>
<g><path style="opacity:1" fill="#101010" d="M 369.5,838.5 C 370.833,838.5 372.167,838.5 373.5,838.5C 373.5,840.5 373.5,842.5 373.5,844.5C 375.5,844.5 377.5,844.5 379.5,844.5C 379.5,845.833 379.5,847.167 379.5,848.5C 377.833,848.5 376.167,848.5 374.5,848.5C 374.5,851.833 374.5,855.167 374.5,858.5C 376.167,858.5 377.833,858.5 379.5,858.5C 379.5,859.833 379.5,861.167 379.5,862.5C 375.713,863.186 372.546,862.186 370,859.5C 369.501,855.514 369.334,851.514 369.5,847.5C 368.5,847.5 367.5,847.5 366.5,847.5C 366.5,846.5 366.5,845.5 366.5,844.5C 367.5,844.5 368.5,844.5 369.5,844.5C 369.5,842.5 369.5,840.5 369.5,838.5 Z"/></g>
<g><path style="opacity:1" fill="#101010" d="M 714.5,838.5 C 715.833,838.5 717.167,838.5 718.5,838.5C 718.5,840.5 718.5,842.5 718.5,844.5C 720.5,844.5 722.5,844.5 724.5,844.5C 724.5,845.833 724.5,847.167 724.5,848.5C 722.833,848.5 721.167,848.5 719.5,848.5C 719.5,851.833 719.5,855.167 719.5,858.5C 721.167,858.5 722.833,858.5 724.5,858.5C 724.5,859.833 724.5,861.167 724.5,862.5C 720.713,863.186 717.546,862.186 715,859.5C 714.501,855.514 714.334,851.514 714.5,847.5C 713.5,847.5 712.5,847.5 711.5,847.5C 711.5,846.5 711.5,845.5 711.5,844.5C 712.5,844.5 713.5,844.5 714.5,844.5C 714.5,842.5 714.5,840.5 714.5,838.5 Z"/></g>
<g><path style="opacity:1" fill="#a7a7a7" d="M 554.5,848.5 C 550.5,848.5 546.5,848.5 542.5,848.5C 542.5,845.833 542.5,843.167 542.5,840.5C 546.833,840.5 551.167,840.5 555.5,840.5C 555.5,839.5 555.5,838.5 555.5,837.5C 549.833,837.5 544.167,837.5 538.5,837.5C 538.5,845.833 538.5,854.167 538.5,862.5C 537.507,854.016 537.174,845.349 537.5,836.5C 543.833,836.5 550.167,836.5 556.5,836.5C 556.5,838.167 556.5,839.833 556.5,841.5C 552.167,841.5 547.833,841.5 543.5,841.5C 543.5,843.5 543.5,845.5 543.5,847.5C 547.371,847.185 551.038,847.518 554.5,848.5 Z"/></g>
<g><path style="opacity:1" fill="#0d0d0d" d="M 281.5,847.5 C 281.5,849.833 281.5,852.167 281.5,854.5C 277.167,854.5 272.833,854.5 268.5,854.5C 268.263,855.791 268.596,856.791 269.5,857.5C 270.622,858.156 271.955,858.489 273.5,858.5C 276.47,857.574 279.47,856.908 282.5,856.5C 282.079,858.91 280.746,860.743 278.5,862C 266.157,864.655 261.657,859.821 265,847.5C 265.833,846.667 266.667,845.833 267.5,845C 271.5,844.333 275.5,844.333 279.5,845C 280.381,845.708 281.047,846.542 281.5,847.5 Z"/></g>
<g><path style="opacity:1" fill="#0f0f0f" d="M 328.5,844.5 C 340.82,841.655 345.653,846.321 343,858.5C 341.833,859.667 340.667,860.833 339.5,862C 327.157,864.655 322.657,859.821 326,847.5C 327.045,846.627 327.878,845.627 328.5,844.5 Z"/></g>
<g><path style="opacity:1" fill="#121212" d="M 349.5,844.5 C 353.182,844.335 356.848,844.501 360.5,845C 361.687,846.019 362.687,847.186 363.5,848.5C 362.667,848.833 361.833,849.167 361,849.5C 357.875,848.744 354.709,848.411 351.5,848.5C 351.5,849.5 351.5,850.5 351.5,851.5C 354.518,851.335 357.518,851.502 360.5,852C 364.5,855.333 364.5,858.667 360.5,862C 357.167,862.667 353.833,862.667 350.5,862C 348.254,860.743 346.921,858.91 346.5,856.5C 350.744,857.643 355.077,858.31 359.5,858.5C 359.5,857.5 359.5,856.5 359.5,855.5C 351.19,857.663 347.356,854.663 348,846.5C 348.717,845.956 349.217,845.289 349.5,844.5 Z"/></g>
<g><path style="opacity:1" fill="#0f0f0f" d="M 457.5,844.5 C 469.82,841.655 474.653,846.321 472,858.5C 470.833,859.667 469.667,860.833 468.5,862C 456.157,864.655 451.657,859.821 455,847.5C 456.045,846.627 456.878,845.627 457.5,844.5 Z"/></g>
<g><path style="opacity:1" fill="#0f0f0f" d="M 479.5,844.5 C 491.82,841.655 496.653,846.321 494,858.5C 492.833,859.667 491.667,860.833 490.5,862C 478.157,864.655 473.657,859.821 477,847.5C 478.045,846.627 478.878,845.627 479.5,844.5 Z"/></g>
<g><path style="opacity:1" fill="#121212" d="M 510.5,844.5 C 514.182,844.335 517.848,844.501 521.5,845C 522.687,846.019 523.687,847.186 524.5,848.5C 523.667,848.833 522.833,849.167 522,849.5C 518.875,848.744 515.709,848.411 512.5,848.5C 512.5,849.5 512.5,850.5 512.5,851.5C 515.518,851.335 518.518,851.502 521.5,852C 525.5,855.333 525.5,858.667 521.5,862C 518.167,862.667 514.833,862.667 511.5,862C 509.254,860.743 507.921,858.91 507.5,856.5C 511.744,857.643 516.077,858.31 520.5,858.5C 520.5,857.5 520.5,856.5 520.5,855.5C 512.19,857.663 508.356,854.663 509,846.5C 509.717,845.956 510.217,845.289 510.5,844.5 Z"/></g>
<g><path style="opacity:1" fill="#0f0f0f" d="M 561.5,844.5 C 573.82,841.655 578.653,846.321 576,858.5C 574.833,859.667 573.667,860.833 572.5,862C 560.157,864.655 555.657,859.821 559,847.5C 560.045,846.627 560.878,845.627 561.5,844.5 Z"/></g>
<g><path style="opacity:1" fill="#191919" d="M 579.5,844.5 C 581.766,844.141 583.599,844.808 585,846.5C 587.135,844.722 589.635,844.055 592.5,844.5C 592.5,845.833 592.5,847.167 592.5,848.5C 589.348,847.959 586.848,848.959 585,851.5C 584.501,855.152 584.335,858.818 584.5,862.5C 582.833,862.5 581.167,862.5 579.5,862.5C 579.5,856.5 579.5,850.5 579.5,844.5 Z"/></g>
<g><path style="opacity:1" fill="#000000" d="M 649.5,844.5 C 651.167,844.5 652.833,844.5 654.5,844.5C 654.5,849.167 654.5,853.833 654.5,858.5C 657.652,859.041 660.152,858.041 662,855.5C 662.499,851.848 662.665,848.182 662.5,844.5C 663.833,844.5 665.167,844.5 666.5,844.5C 666.5,850.5 666.5,856.5 666.5,862.5C 665.167,862.5 663.833,862.5 662.5,862.5C 662.649,861.448 662.483,860.448 662,859.5C 657.694,863.675 653.694,863.342 650,858.5C 649.501,853.845 649.334,849.179 649.5,844.5 Z"/></g>
<g><path style="opacity:1" fill="#0f0f0f" d="M 674.5,844.5 C 678.182,844.335 681.848,844.501 685.5,845C 687.919,846.509 688.919,848.675 688.5,851.5C 686.284,851.725 684.617,850.892 683.5,849C 681.19,848.503 678.857,848.337 676.5,848.5C 676.5,851.833 676.5,855.167 676.5,858.5C 678.857,858.663 681.19,858.497 683.5,858C 684.617,856.108 686.284,855.275 688.5,855.5C 688.919,858.325 687.919,860.491 685.5,862C 673.157,864.655 668.657,859.821 672,847.5C 673.045,846.627 673.878,845.627 674.5,844.5 Z"/></g>
<g><path style="opacity:1" fill="#0d0d0d" d="M 694.5,844.5 C 698.182,844.335 701.848,844.501 705.5,845C 706.333,845.833 707.167,846.667 708,847.5C 708.499,852.489 708.666,857.489 708.5,862.5C 706.508,862.672 704.842,862.005 703.5,860.5C 699.358,863.407 695.524,863.074 692,859.5C 690.959,856.364 691.793,853.864 694.5,852C 697.482,851.502 700.482,851.335 703.5,851.5C 703.5,850.167 703.5,848.833 703.5,847.5C 699.112,847.568 695.112,848.568 691.5,850.5C 691.615,848.053 692.615,846.053 694.5,844.5 Z"/></g>
<g><path style="opacity:1" fill="#000000" d="M 728.5,844.5 C 729.833,844.5 731.167,844.5 732.5,844.5C 732.5,850.5 732.5,856.5 732.5,862.5C 731.167,862.5 729.833,862.5 728.5,862.5C 728.5,856.5 728.5,850.5 728.5,844.5 Z"/></g>
<g><path style="opacity:1" fill="#0f0f0f" d="M 740.5,844.5 C 752.82,841.655 757.653,846.321 755,858.5C 753.833,859.667 752.667,860.833 751.5,862C 739.157,864.655 734.657,859.821 738,847.5C 739.045,846.627 739.878,845.627 740.5,844.5 Z"/></g>
<g><path style="opacity:1" fill="#181818" d="M 759.5,844.5 C 761.766,844.141 763.599,844.808 765,846.5C 769.569,843.439 773.569,844.106 777,848.5C 777.499,853.155 777.666,857.821 777.5,862.5C 775.833,862.5 774.167,862.5 772.5,862.5C 772.5,857.833 772.5,853.167 772.5,848.5C 769.348,847.959 766.848,848.959 765,851.5C 764.501,855.152 764.335,858.818 764.5,862.5C 762.833,862.5 761.167,862.5 759.5,862.5C 759.5,856.5 759.5,850.5 759.5,844.5 Z"/></g>
<g><path style="opacity:1" fill="#e1e1e1" d="M 401.5,843.5 C 403.956,845.818 405.289,848.818 405.5,852.5C 403.5,852.5 401.5,852.5 399.5,852.5C 399.756,849.402 400.422,846.402 401.5,843.5 Z"/></g>
<g><path style="opacity:1" fill="#6a6a6a" d="M 317.5,862.5 C 316.833,857.833 316.167,853.167 315.5,848.5C 315.783,847.711 316.283,847.044 317,846.5C 317.499,851.823 317.666,857.156 317.5,862.5 Z"/></g>
<g><path style="opacity:1" fill="#f8f8f8" d="M 269.5,848.5 C 272.167,848.5 274.833,848.5 277.5,848.5C 277.5,849.5 277.5,850.5 277.5,851.5C 274.833,851.5 272.167,851.5 269.5,851.5C 269.5,850.5 269.5,849.5 269.5,848.5 Z"/></g>
<g><path style="opacity:1" fill="#fafafa" d="M 330.5,848.5 C 333.167,848.5 335.833,848.5 338.5,848.5C 338.5,851.833 338.5,855.167 338.5,858.5C 335.833,858.5 333.167,858.5 330.5,858.5C 330.5,855.167 330.5,851.833 330.5,848.5 Z"/></g>
<g><path style="opacity:1" fill="#fafafa" d="M 459.5,848.5 C 462.167,848.5 464.833,848.5 467.5,848.5C 467.5,851.833 467.5,855.167 467.5,858.5C 464.833,858.5 462.167,858.5 459.5,858.5C 459.5,855.167 459.5,851.833 459.5,848.5 Z"/></g>
<g><path style="opacity:1" fill="#fafafa" d="M 481.5,848.5 C 484.167,848.5 486.833,848.5 489.5,848.5C 489.5,851.833 489.5,855.167 489.5,858.5C 486.833,858.5 484.167,858.5 481.5,858.5C 481.5,855.167 481.5,851.833 481.5,848.5 Z"/></g>
<g><path style="opacity:1" fill="#fafafa" d="M 563.5,848.5 C 566.167,848.5 568.833,848.5 571.5,848.5C 571.5,851.833 571.5,855.167 571.5,858.5C 568.833,858.5 566.167,858.5 563.5,858.5C 563.5,855.167 563.5,851.833 563.5,848.5 Z"/></g>
<g><path style="opacity:1" fill="#f5f5f5" d="M 632.5,848.5 C 634.857,848.337 637.19,848.503 639.5,849C 642.326,856.005 639.993,859.171 632.5,858.5C 632.5,855.167 632.5,851.833 632.5,848.5 Z"/></g>
<g><path style="opacity:1" fill="#fafafa" d="M 742.5,848.5 C 745.167,848.5 747.833,848.5 750.5,848.5C 750.5,851.833 750.5,855.167 750.5,858.5C 747.833,858.5 745.167,858.5 742.5,858.5C 742.5,855.167 742.5,851.833 742.5,848.5 Z"/></g>
<g><path style="opacity:1" fill="#919191" d="M 554.5,851.5 C 551.038,852.482 547.371,852.815 543.5,852.5C 543.813,856.042 543.479,859.375 542.5,862.5C 542.5,858.833 542.5,855.167 542.5,851.5C 546.5,851.5 550.5,851.5 554.5,851.5 Z"/></g>
<g><path style="opacity:1" fill="#929292" d="M 281.5,847.5 C 282.473,849.948 282.806,852.615 282.5,855.5C 277.706,854.903 273.373,855.57 269.5,857.5C 268.596,856.791 268.263,855.791 268.5,854.5C 272.833,854.5 277.167,854.5 281.5,854.5C 281.5,852.167 281.5,849.833 281.5,847.5 Z"/></g>
<g><path style="opacity:1" fill="#d9d9d9" d="M 696.5,854.5 C 699.247,854.187 701.914,854.52 704.5,855.5C 704.023,856.478 703.357,857.311 702.5,858C 700.19,858.497 697.857,858.663 695.5,858.5C 695.433,857.041 695.766,855.708 696.5,854.5 Z"/></g>
</svg>
